<svg width="32" xmlns="http://www.w3.org/2000/svg" height="32" id="screenshot-51aced78-2d69-80af-8007-97ac02871523" viewBox="0 0 32 32" xmlns:xlink="http://www.w3.org/1999/xlink" fill="none" version="1.1"><g id="shape-51aced78-2d69-80af-8007-97ac02871523" rx="0" ry="0"><g id="shape-51aced78-2d69-80af-8007-97abc8c45ed9" width="24" height="24" rx="0" ry="0" style="fill: rgb(0, 0, 0);"><defs><clipPath id="render-17-a" class="svg-def" transform="matrix(1.000000, 0.000000, 0.000000, 1.000000, 0.000000, 0.000000)"><rect width="24" height="24" fill="#fff"/></clipPath></defs><g id="shape-51aced78-2d69-80af-8007-97abc8c45eda" style="display: none;"><g class="fills" id="fills-51aced78-2d69-80af-8007-97abc8c45eda"><rect width="32" height="32" x="0" transform="matrix(1.000000, 0.000000, 0.000000, 1.000000, 0.000000, 0.000000)" style="fill: none;" ry="0" fill="none" rx="0" y="0"/></g></g><g id="shape-51aced78-2d69-80af-8007-97abc8c45edb" clip-path="url(#render-19-a)" rx="0" ry="0" style="fill: rgb(0, 0, 0);"><defs><clipPath id="render-19-a" class="svg-def" transform="matrix(1.333333, 0.000000, 0.000000, 1.333333, 0.000000, 0.000000)"><rect width="24" height="24" fill="#fff"/></clipPath></defs><g id="shape-51aced78-2d69-80af-8007-97abc8c45edd"><g class="fills" id="fills-51aced78-2d69-80af-8007-97abc8c45edd"><path d="M5.333251953125,25.33349609375L26.666748046875,25.33349609375L26.666748046875,16L29.333251953125,16L29.333251953125,26.66650390625C29.333251953125,27.02099609375,29.193115234375,27.359375,28.943115234375,27.609375C28.693115234375,27.859375,28.353759765625,28,28,28L4,28C3.646484375,28,3.307373046875,27.859375,3.057373046875,27.609375C2.807373046875,27.359375,2.666748046875,27.02099609375,2.666748046875,26.66650390625L2.666748046875,16L5.333251953125,16L5.333251953125,25.33349609375ZM18.666748046875,12L25.333251953125,12L16,21.33349609375L6.666748046875,12L13.333251953125,12L13.333251953125,4L18.666748046875,4L18.666748046875,12Z" style="fill: rgb(48, 181, 127); fill-opacity: 1;"/></g></g></g><g id="shape-51aced78-2d69-80af-8007-97abc8c45edc"><defs fill="none" style="fill: rgb(0, 0, 0);"/></g></g><g id="shape-51aced78-2d69-80af-8007-97abc8c45ee4"><g class="fills" id="fills-51aced78-2d69-80af-8007-97abc8c45ee4"><rect rx="0" ry="0" x="0" y="0" transform="matrix(1.000000, 0.000000, 0.000000, 1.000000, 0.000000, 0.000000)" width="32" height="32"/></g><g id="strokes-57bc333d-706b-80d1-8007-97ac1a246910-51aced78-2d69-80af-8007-97abc8c45ee4" class="strokes"><g class="inner-stroke-shape" transform="matrix(1.000000, 0.000000, 0.000000, 1.000000, 0.000000, 0.000000)"><defs><clipPath id="inner-stroke-render-22-51aced78-2d69-80af-8007-97abc8c45ee4-0"><use href="#stroke-shape-render-22-51aced78-2d69-80af-8007-97abc8c45ee4-0"/></clipPath><rect rx="0" ry="0" x="0" y="0" width="32" height="32" id="stroke-shape-render-22-51aced78-2d69-80af-8007-97abc8c45ee4-0" style="fill: none; stroke-width: 4; stroke: rgb(48, 181, 127); stroke-opacity: 1;"/></defs><use href="#stroke-shape-render-22-51aced78-2d69-80af-8007-97abc8c45ee4-0" clip-path="url('#inner-stroke-render-22-51aced78-2d69-80af-8007-97abc8c45ee4-0')"/></g></g></g></g></svg>