<svg width="48" xmlns="http://www.w3.org/2000/svg" height="48" id="screenshot-51aced78-2d69-80af-8007-979abb153d6d" viewBox="0 0 48 48" xmlns:xlink="http://www.w3.org/1999/xlink" fill="none" version="1.1"><g id="shape-51aced78-2d69-80af-8007-979abb153d6d" rx="0" ry="0" style="fill: rgb(0, 0, 0);"><g id="shape-51aced78-2d69-80af-8007-979abb153d7a" style="display: none;"><g class="fills" id="fills-51aced78-2d69-80af-8007-979abb153d7a"><rect width="48" height="48" x="0" transform="matrix(1.000000, 0.000000, 0.000000, 1.000000, 0.000000, 0.000000)" style="fill: none;" ry="0" fill="none" rx="0" y="0"/></g></g><g id="shape-51aced78-2d69-80af-8007-979abb153d7b"><g class="fills" id="fills-51aced78-2d69-80af-8007-979abb153d7b"><rect rx="4" ry="4" x="6" y="15" transform="matrix(1.000000, 0.000000, 0.000000, 1.000000, 0.000000, 0.000000)" width="36" height="21" style="fill: rgb(0, 0, 0);"/></g></g><g id="shape-51aced78-2d69-80af-8007-979abb153d7c"><g class="fills" id="fills-51aced78-2d69-80af-8007-979abb153d7c"><rect rx="0" ry="0" x="10.5" y="10.5" transform="matrix(1.000000, 0.000000, 0.000000, 1.000000, 0.000000, 0.000000)" width="10.5" height="6" style="fill: rgb(0, 0, 0);"/></g></g><g id="shape-51aced78-2d69-80af-8007-979abb153d7d"><g class="fills" id="fills-51aced78-2d69-80af-8007-979abb153d7d"><ellipse cx="24" cy="25.5" rx="6.75" ry="6.75" transform="matrix(1.000000, 0.000000, 0.000000, 1.000000, 0.000000, 0.000000)" style="fill: rgb(255, 255, 255);"/></g></g><g id="shape-51aced78-2d69-80af-8007-979abb153d7e"><g class="fills" id="fills-51aced78-2d69-80af-8007-979abb153d7e"><ellipse cx="24" cy="25.5" rx="3.75" ry="3.75" transform="matrix(1.000000, 0.000000, 0.000000, 1.000000, 0.000000, 0.000000)" style="fill: rgb(0, 0, 0);"/></g></g></g></svg>