<svg width="27" xmlns="http://www.w3.org/2000/svg" height="26" id="screenshot-a6301583-2ee2-80b9-8007-8eadced730ca" viewBox="2414.745 3407.512 27 26" xmlns:xlink="http://www.w3.org/1999/xlink" fill="none" version="1.1"><g id="shape-a6301583-2ee2-80b9-8007-8eadced730ca"><g class="fills" id="fills-a6301583-2ee2-80b9-8007-8eadced730ca"><path d="M2418.15673828125,3407.483642578125L2438.406494140625,3407.541259765625C2440.2705078125,3407.54638671875,2441.777587890625,3409.005859375,2441.7724609375,3410.80078125L2441.717041015625,3430.301025390625C2441.7119140625,3432.095947265625,2440.196533203125,3433.54638671875,2438.332763671875,3433.541015625L2418.0830078125,3433.483642578125C2416.21923828125,3433.478271484375,2414.712158203125,3432.019287109375,2414.71728515625,3430.224365234375L2414.7724609375,3410.72412109375C2414.777587890625,3408.92919921875,2416.29296875,3407.478515625,2418.15673828125,3407.483642578125L2418.15673828125,3407.483642578125M2418.150634765625,3409.650146484375C2417.529296875,3409.6484375,2417.024169921875,3410.13232421875,2417.0224609375,3410.73046875L2416.96728515625,3430.230712890625C2416.965576171875,3430.828857421875,2417.4677734375,3431.3154296875,2418.089111328125,3431.317138671875L2438.3388671875,3431.37451171875C2438.96044921875,3431.37646484375,2439.465576171875,3430.892578125,2439.46728515625,3430.29443359375L2439.522705078125,3410.79443359375C2439.5244140625,3410.1962890625,2439.02197265625,3409.70947265625,2438.400390625,3409.707763671875L2418.150634765625,3409.650146484375L2418.150634765625,3409.650146484375M2422.292724609375,3419.729736328125L2425.98681640625,3423.3076171875L2434.213623046875,3415.429931640625C2434.654296875,3415.008056640625,2435.36669921875,3415.01025390625,2435.804931640625,3415.4345703125C2436.242919921875,3415.85888671875,2436.240966796875,3416.544921875,2435.800537109375,3416.966796875L2426.77587890625,3425.607666015625C2426.335205078125,3426.02978515625,2425.623046875,3426.027587890625,2425.18505859375,3425.60302734375L2420.697021484375,3421.257080078125C2420.25927734375,3420.832763671875,2420.26123046875,3420.146728515625,2420.701416015625,3419.72509765625C2421.14208984375,3419.30322265625,2421.8544921875,3419.305419921875,2422.292724609375,3419.729736328125L2422.292724609375,3419.729736328125" fill-rule="evenodd" clip-rule="evenodd" style="fill: rgb(84, 21, 84); fill-opacity: 1;"/></g></g></svg>