<svg width="33" xmlns="http://www.w3.org/2000/svg" height="40" id="screenshot-44fefb30-e21a-807a-8007-8ad739580724" viewBox="6042 -787 33 40" xmlns:xlink="http://www.w3.org/1999/xlink" fill="none" version="1.1"><g id="shape-44fefb30-e21a-807a-8007-8ad739580724"><g class="fills" id="fills-44fefb30-e21a-807a-8007-8ad739580724"><path d="M6053,-782L6063,-782L6063,-768L6070,-768L6068.08349609375,-763.076904296875L6066.16650390625,-763.076904296875L6062.33349609375,-755.6923217773438L6060.55419921875,-755.6923217773438L6059.77783203125,-752L6057.22216796875,-752L6056.58349609375,-755.6923217773438L6054.66650390625,-755.6923217773438L6051.47216796875,-763.076904296875L6048.91650390625,-763.076904296875L6047,-768L6053,-768L6053,-782L6053,-782" style="fill: rgb(0, 0, 0);"/></g><g id="strokes-252f3562-b5c7-80b0-8007-8ad77ba7f463-44fefb30-e21a-807a-8007-8ad739580724" class="strokes"><g class="stroke-shape"><path d="M6053,-782L6063,-782L6063,-768L6070,-768L6068.08349609375,-763.076904296875L6066.16650390625,-763.076904296875L6062.33349609375,-755.6923217773438L6060.55419921875,-755.6923217773438L6059.77783203125,-752L6057.22216796875,-752L6056.58349609375,-755.6923217773438L6054.66650390625,-755.6923217773438L6051.47216796875,-763.076904296875L6048.91650390625,-763.076904296875L6047,-768L6053,-768L6053,-782L6053,-782" style="fill: none; stroke-width: 4; stroke: rgb(0, 0, 0); stroke-opacity: 1;"/></g></g></g></svg>