<svg width="31.506" xmlns="http://www.w3.org/2000/svg" height="30.79" id="screenshot-9f780267-956d-80e4-8007-ac51ecf51587" viewBox="2547 2398 31.506 30.79" xmlns:xlink="http://www.w3.org/1999/xlink" fill="none" version="1.1"><g id="shape-9f780267-956d-80e4-8007-ac51ecf51587"><g class="fills" id="fills-9f780267-956d-80e4-8007-ac51ecf51587"><path d="M2560.896728515625,2413.394775390625L2556.573974609375,2409.17041015625C2556.061279296875,2408.66943359375,2556.061279296875,2407.85693359375,2556.573974609375,2407.35595703125C2557.08642578125,2406.85498046875,2557.917724609375,2406.85498046875,2558.4306640625,2407.35595703125L2562.753173828125,2411.58056640625L2567.076171875,2407.35595703125C2567.588623046875,2406.85498046875,2568.419921875,2406.85498046875,2568.9326171875,2407.35595703125C2569.4453125,2407.85693359375,2569.4453125,2408.66943359375,2568.9326171875,2409.17041015625L2564.609619140625,2413.394775390625L2568.9326171875,2417.619384765625C2569.4453125,2418.120361328125,2569.4453125,2418.9326171875,2568.9326171875,2419.43359375C2568.419921875,2419.934814453125,2567.588623046875,2419.934814453125,2567.076171875,2419.43359375L2562.753173828125,2415.209228515625L2558.4306640625,2419.43359375C2557.917724609375,2419.934814453125,2557.08642578125,2419.934814453125,2556.573974609375,2419.43359375C2556.061279296875,2418.9326171875,2556.061279296875,2418.120361328125,2556.573974609375,2417.619384765625L2560.896728515625,2413.394775390625L2560.896728515625,2413.394775390625M2562.753173828125,2400.565673828125C2555.5029296875,2400.565673828125,2549.62548828125,2406.3095703125,2549.62548828125,2413.394775390625C2549.62548828125,2420.480224609375,2555.5029296875,2426.22412109375,2562.753173828125,2426.22412109375C2570.00341796875,2426.22412109375,2575.880859375,2420.480224609375,2575.880859375,2413.394775390625C2575.880859375,2406.3095703125,2570.00341796875,2400.565673828125,2562.753173828125,2400.565673828125L2562.753173828125,2400.565673828125M2578.50634765625,2413.394775390625C2578.50634765625,2421.897216796875,2571.453369140625,2428.789794921875,2562.753173828125,2428.789794921875C2554.052978515625,2428.789794921875,2547,2421.897216796875,2547,2413.394775390625C2547,2404.892578125,2554.052978515625,2398,2562.753173828125,2398C2571.453369140625,2398,2578.50634765625,2404.892578125,2578.50634765625,2413.394775390625L2578.50634765625,2413.394775390625" fill-rule="evenodd" clip-rule="evenodd" style="fill: rgb(242, 78, 30); fill-opacity: 1;"/></g></g></svg>