<svg width="48" xmlns="http://www.w3.org/2000/svg" height="48" id="screenshot-31703a9e-b65d-800e-8007-b15e9b5f3b0b" viewBox="0 0 48 48" xmlns:xlink="http://www.w3.org/1999/xlink" fill="none" version="1.1"><g id="shape-31703a9e-b65d-800e-8007-b15e9b5f3b0b" rx="0" ry="0"><g id="shape-31703a9e-b65d-800e-8007-b15e9b5f7d35" clip-path="url(#render-2-a)" rx="0" ry="0" style="fill: rgb(0, 0, 0);"><defs><clipPath id="render-2-a" class="svg-def" transform="matrix(2.000000, 0.000000, 0.000000, 2.000000, 0.000000, 0.000000)"><rect width="24" height="24" fill="#fff"/></clipPath></defs><g id="shape-31703a9e-b65d-800e-8007-b15e9b5f7d37"><g class="fills" id="fills-31703a9e-b65d-800e-8007-b15e9b5f7d37"><path d="M24,4C35.0458984375,4,44,12.953857421875,44,24C44,35.0458984375,35.0458984375,44,24,44C12.9541015625,44,4,35.0458984375,4,24C4,12.953857421875,12.9541015625,4,24,4ZM24,8C19.75634765625,8,15.68701171875,9.685546875,12.6865234375,12.686279296875C9.685546875,15.686767578125,8,19.756591796875,8,24C8,28.243408203125,9.685546875,32.313232421875,12.6865234375,35.313720703125C15.68701171875,38.314208984375,19.75634765625,40,24,40C28.2431640625,40,32.31298828125,38.314208984375,35.31396484375,35.313720703125C38.31396484375,32.313232421875,40,28.243408203125,40,24C40,19.756591796875,38.31396484375,15.686767578125,35.31396484375,12.686279296875C32.31298828125,9.685546875,28.2431640625,8,24,8ZM24,22C28,22,31.333984375,22.666015625,34,24C34,26.652099609375,32.9462890625,29.19580078125,31.07080078125,31.071044921875C29.19580078125,32.9462890625,26.65234375,34,24,34C21.34765625,34,18.80419921875,32.9462890625,16.9287109375,31.071044921875C15.0537109375,29.19580078125,14,26.652099609375,14,24C16.666015625,22.666015625,20,22,24,22ZM17,14C18.15283203125,13.999755859375,19.27001953125,14.397705078125,20.1630859375,15.126708984375C21.0556640625,15.85546875,21.66943359375,16.87060546875,21.89990234375,18L12.10009765625,18C12.33056640625,16.87060546875,12.9443359375,15.85546875,13.8369140625,15.126708984375C14.72998046875,14.397705078125,15.84716796875,13.999755859375,17,14ZM31,14C32.15283203125,13.999755859375,33.27001953125,14.397705078125,34.1630859375,15.126708984375C35.0556640625,15.85546875,35.66943359375,16.87060546875,35.89990234375,18L26.10009765625,18C26.33056640625,16.87060546875,26.9443359375,15.85546875,27.8369140625,15.126708984375C28.72998046875,14.397705078125,29.84716796875,13.999755859375,31,14Z" style="fill: rgb(0, 0, 0); fill-opacity: 1;"/></g></g></g><g id="shape-31703a9e-b65d-800e-8007-b15e9b5f7d36"><defs fill="none" style="fill: rgb(0, 0, 0);"/></g></g></svg>