<svg width="32" xmlns="http://www.w3.org/2000/svg" height="32" id="screenshot-51aced78-2d69-80af-8007-97ac09f3119c" viewBox="0 0 32 32" xmlns:xlink="http://www.w3.org/1999/xlink" fill="none" version="1.1"><g id="shape-51aced78-2d69-80af-8007-97ac09f3119c" rx="0" ry="0"><g id="shape-51aced78-2d69-80af-8007-97abc8c45ee3"><g class="fills" id="fills-51aced78-2d69-80af-8007-97abc8c45ee3"><rect rx="0" ry="0" x="0" y="0" transform="matrix(1.000000, 0.000000, 0.000000, 1.000000, 0.000000, 0.000000)" width="32" height="32"/></g><g id="strokes-57bc333d-706b-80d1-8007-97ac1a1c4ce7-51aced78-2d69-80af-8007-97abc8c45ee3" class="strokes"><g class="inner-stroke-shape" transform="matrix(1.000000, 0.000000, 0.000000, 1.000000, 0.000000, 0.000000)"><defs><clipPath id="inner-stroke-render-2-51aced78-2d69-80af-8007-97abc8c45ee3-0"><use href="#stroke-shape-render-2-51aced78-2d69-80af-8007-97abc8c45ee3-0"/></clipPath><rect rx="0" ry="0" x="0" y="0" width="32" height="32" id="stroke-shape-render-2-51aced78-2d69-80af-8007-97abc8c45ee3-0" style="fill: none; stroke-width: 4; stroke: rgb(48, 181, 127); stroke-opacity: 1;"/></defs><use href="#stroke-shape-render-2-51aced78-2d69-80af-8007-97abc8c45ee3-0" clip-path="url('#inner-stroke-render-2-51aced78-2d69-80af-8007-97abc8c45ee3-0')"/></g></g></g><g id="shape-51aced78-2d69-80af-8007-97abc8c45ede" width="24" height="24" rx="0" ry="0" style="fill: rgb(0, 0, 0);"><defs><clipPath id="render-3-a" class="svg-def" transform="matrix(1.000000, 0.000000, 0.000000, 1.000000, 0.000000, 0.000000)"><rect width="24" height="24" fill="#fff"/></clipPath></defs><g id="shape-51aced78-2d69-80af-8007-97abc8c45edf" style="display: none;"><g class="fills" id="fills-51aced78-2d69-80af-8007-97abc8c45edf"><rect width="32" height="32" x="0" transform="matrix(1.000000, 0.000000, 0.000000, 1.000000, 0.000000, 0.000000)" style="fill: none;" ry="0" fill="none" rx="0" y="0"/></g></g><g id="shape-51aced78-2d69-80af-8007-97abc8c45ee0" clip-path="url(#render-5-a)" rx="0" ry="0" style="fill: rgb(0, 0, 0);"><defs><clipPath id="render-5-a" class="svg-def" transform="matrix(1.333333, 0.000000, 0.000000, 1.333333, 0.000000, 0.000000)"><rect width="24" height="24" fill="#fff"/></clipPath></defs><g id="shape-51aced78-2d69-80af-8007-97abc8c45ee2"><g class="fills" id="fills-51aced78-2d69-80af-8007-97abc8c45ee2"><path d="M12.32421875,25.33349609375L28,25.33349609375L28,28L4,28L4,22.34326171875L17.2001953125,9.14306640625L22.8560791015625,14.80224609375L12.3226318359375,25.33349609375L12.32421875,25.33349609375ZM19.083984375,7.25927734375L21.9134521484375,4.4296875C22.1634521484375,4.1796875,22.5025634765625,4.0390625,22.8560791015625,4.0390625C23.2095947265625,4.0390625,23.548828125,4.1796875,23.798828125,4.4296875L27.5706787109375,8.20166015625C27.8206787109375,8.45166015625,27.9613037109375,8.79052734375,27.9613037109375,9.14453125C27.9613037109375,9.49755859375,27.8206787109375,9.83740234375,27.5706787109375,10.08740234375L24.7415771484375,12.91552734375L19.0853271484375,7.25927734375L19.083984375,7.25927734375Z" style="fill: rgb(48, 181, 127); fill-opacity: 1;"/></g><g id="strokes-57bc333d-706b-80d1-8007-97ac1a1efbc4-51aced78-2d69-80af-8007-97abc8c45ee2" class="strokes"><g class="inner-stroke-shape"><defs><clipPath id="inner-stroke-render-6-51aced78-2d69-80af-8007-97abc8c45ee2-0"><use href="#stroke-shape-render-6-51aced78-2d69-80af-8007-97abc8c45ee2-0"/></clipPath><path d="M12.32421875,25.33349609375L28,25.33349609375L28,28L4,28L4,22.34326171875L17.2001953125,9.14306640625L22.8560791015625,14.80224609375L12.3226318359375,25.33349609375L12.32421875,25.33349609375ZM19.083984375,7.25927734375L21.9134521484375,4.4296875C22.1634521484375,4.1796875,22.5025634765625,4.0390625,22.8560791015625,4.0390625C23.2095947265625,4.0390625,23.548828125,4.1796875,23.798828125,4.4296875L27.5706787109375,8.20166015625C27.8206787109375,8.45166015625,27.9613037109375,8.79052734375,27.9613037109375,9.14453125C27.9613037109375,9.49755859375,27.8206787109375,9.83740234375,27.5706787109375,10.08740234375L24.7415771484375,12.91552734375L19.0853271484375,7.25927734375L19.083984375,7.25927734375Z" id="stroke-shape-render-6-51aced78-2d69-80af-8007-97abc8c45ee2-0" style="fill: none; stroke-width: 2; stroke: rgb(48, 181, 127); stroke-opacity: 1;"/></defs><use href="#stroke-shape-render-6-51aced78-2d69-80af-8007-97abc8c45ee2-0" clip-path="url('#inner-stroke-render-6-51aced78-2d69-80af-8007-97abc8c45ee2-0')"/></g></g></g></g><g id="shape-51aced78-2d69-80af-8007-97abc8c45ee1"><defs fill="none" style="fill: rgb(0, 0, 0);"/></g></g></g></svg>