<svg width="48" xmlns="http://www.w3.org/2000/svg" height="48" id="screenshot-31703a9e-b65d-800e-8007-b15c2ced2167" viewBox="0 0 48 48" xmlns:xlink="http://www.w3.org/1999/xlink" fill="none" version="1.1"><g id="shape-31703a9e-b65d-800e-8007-b15c2ced2167" width="120" height="120" rx="0" ry="0" style="fill: rgb(0, 0, 0);"><g id="shape-31703a9e-b65d-800e-8007-b15c2ceeee1b" style="display: none;"><g class="fills" id="fills-31703a9e-b65d-800e-8007-b15c2ceeee1b"><rect width="48" height="48" x="0" transform="matrix(1.000000, 0.000000, 0.000000, 1.000000, 0.000000, 0.000000)" style="fill: none;" ry="0" fill="none" rx="0" y="0"/></g></g><g id="shape-31703a9e-b65d-800e-8007-b15c2cefa895"><g class="fills" id="fills-31703a9e-b65d-800e-8007-b15c2cefa895"><rect rx="0" ry="0" x="11" y="14" transform="matrix(1.000000, 0.000000, 0.000000, 1.000000, 0.000000, 0.000000)" width="12" height="16" style="fill: rgb(255, 235, 59);"/></g><g id="strokes-38124c6d-2468-80af-8007-b2af87c13d2d-31703a9e-b65d-800e-8007-b15c2cefa895" class="strokes"><g class="inner-stroke-shape" transform="matrix(1.000000, 0.000000, 0.000000, 1.000000, 0.000000, 0.000000)"><defs><clipPath id="inner-stroke-render-7-31703a9e-b65d-800e-8007-b15c2cefa895-0"><use href="#stroke-shape-render-7-31703a9e-b65d-800e-8007-b15c2cefa895-0"/></clipPath><rect rx="0" ry="0" x="11" y="14" width="12" height="16" id="stroke-shape-render-7-31703a9e-b65d-800e-8007-b15c2cefa895-0" style="fill: none; stroke-width: 4; stroke: rgb(0, 0, 0); stroke-opacity: 1;"/></defs><use href="#stroke-shape-render-7-31703a9e-b65d-800e-8007-b15c2cefa895-0" clip-path="url('#inner-stroke-render-7-31703a9e-b65d-800e-8007-b15c2cefa895-0')"/></g></g></g><g id="shape-31703a9e-b65d-800e-8007-b15c2ceff0e1"><g class="fills" id="fills-31703a9e-b65d-800e-8007-b15c2ceff0e1"><rect rx="0" ry="0" x="25" y="18" transform="matrix(1.000000, 0.000000, 0.000000, 1.000000, 0.000000, 0.000000)" width="12" height="16" style="fill: rgb(26, 138, 255);"/></g><g id="strokes-38124c6d-2468-80af-8007-b2af87c22fdd-31703a9e-b65d-800e-8007-b15c2ceff0e1" class="strokes"><g class="inner-stroke-shape" transform="matrix(1.000000, 0.000000, 0.000000, 1.000000, 0.000000, 0.000000)"><defs><clipPath id="inner-stroke-render-8-31703a9e-b65d-800e-8007-b15c2ceff0e1-0"><use href="#stroke-shape-render-8-31703a9e-b65d-800e-8007-b15c2ceff0e1-0"/></clipPath><rect rx="0" ry="0" x="25" y="18" width="12" height="16" id="stroke-shape-render-8-31703a9e-b65d-800e-8007-b15c2ceff0e1-0" style="fill: none; stroke-width: 4; stroke: rgb(0, 0, 0); stroke-opacity: 1;"/></defs><use href="#stroke-shape-render-8-31703a9e-b65d-800e-8007-b15c2ceff0e1-0" clip-path="url('#inner-stroke-render-8-31703a9e-b65d-800e-8007-b15c2ceff0e1-0')"/></g></g></g><g id="shape-31703a9e-b65d-800e-8007-b15c2cf12378"><g class="fills" id="fills-31703a9e-b65d-800e-8007-b15c2cf12378"><path d="M32.400146484375,36.4000244140625C27.39990234375,40.39996337890625,23.050048828125,42.300048828125,19.2001953125,41.5999755859375C15.35009765625,40.9000244140625,12.80029296875,37.60003662109375,12.80029296875,33.5999755859375" fill="none" style="fill: none;"/></g><g fill="none" id="strokes-38124c6d-2468-80af-8007-b2af87c2b817-31703a9e-b65d-800e-8007-b15c2cf12378" class="strokes"><g class="stroke-shape"><path d="M32.400146484375,36.4000244140625C27.39990234375,40.39996337890625,23.050048828125,42.300048828125,19.2001953125,41.5999755859375C15.35009765625,40.9000244140625,12.80029296875,37.60003662109375,12.80029296875,33.5999755859375" style="fill: none; stroke-width: 2; stroke: rgb(0, 0, 0); stroke-opacity: 1;"/></g></g></g><g id="shape-31703a9e-b65d-800e-8007-b15c9cbcc58c"><g class="fills" id="fills-31703a9e-b65d-800e-8007-b15c9cbcc58c"><path d="M14.7724609375,11.2467041015625C18.48046875,7.8514404296875,22.05322265625,6.3309326171875,25.738037109375,7.145751953125C29.4228515625,7.96051025390625,31.52197265625,9.17120361328125,32.400146484375,12.79998779296875" fill="none" style="fill: none;"/></g><g fill="none" id="strokes-38124c6d-2468-80af-8007-b2af87c32bfe-31703a9e-b65d-800e-8007-b15c9cbcc58c" class="strokes"><g class="stroke-shape"><path d="M14.7724609375,11.2467041015625C18.48046875,7.8514404296875,22.05322265625,6.3309326171875,25.738037109375,7.145751953125C29.4228515625,7.96051025390625,31.52197265625,9.17120361328125,32.400146484375,12.79998779296875" style="fill: none; stroke-width: 2; stroke: rgb(0, 0, 0); stroke-opacity: 1;"/></g></g></g><g id="shape-31703a9e-b65d-800e-8007-b15c2cf14c8f"><g class="fills" id="fills-31703a9e-b65d-800e-8007-b15c2cf14c8f"><path d="M10.80224609375,35.6221923828125L12.5888671875,31.4212646484375L15.1796875,35.1796875L10.80224609375,35.6221923828125"/></g></g><g id="shape-31703a9e-b65d-800e-8007-b15c9cbcc58d"><g class="fills" id="fills-31703a9e-b65d-800e-8007-b15c9cbcc58d"><path d="M34.7998046875,12.21630859375L32.400146484375,16.21636962890625L30,12.21630859375L34.7998046875,12.21630859375"/></g></g></g></svg>