<svg width="27" xmlns="http://www.w3.org/2000/svg" height="26" id="screenshot-7ed34de5-ae0a-80d8-8007-92183d88b994" viewBox="2414.359 3543.512 27 26" xmlns:xlink="http://www.w3.org/1999/xlink" fill="none" version="1.1"><g id="shape-7ed34de5-ae0a-80d8-8007-92183d88b994"><g class="fills" id="fills-7ed34de5-ae0a-80d8-8007-92183d88b994"><path d="M2417.770751953125,3543.483154296875L2438.0205078125,3543.540771484375C2439.884521484375,3543.5458984375,2441.3916015625,3545.00537109375,2441.386474609375,3546.80029296875L2441.3310546875,3566.30029296875C2441.326171875,3568.09521484375,2439.810791015625,3569.5458984375,2437.94677734375,3569.54052734375L2417.697021484375,3569.483154296875C2415.833251953125,3569.477783203125,2414.326171875,3568.018798828125,2414.331298828125,3566.223876953125L2414.38671875,3546.7236328125C2414.3916015625,3544.9287109375,2415.906982421875,3543.477783203125,2417.770751953125,3543.483154296875L2417.770751953125,3543.483154296875M2417.7646484375,3545.649658203125C2417.143310546875,3545.64794921875,2416.63818359375,3546.1318359375,2416.63671875,3546.72998046875L2416.581298828125,3566.230224609375C2416.57958984375,3566.828369140625,2417.081787109375,3567.31494140625,2417.703125,3567.316650390625L2437.952880859375,3567.3740234375C2438.574462890625,3567.375732421875,2439.079833984375,3566.89208984375,2439.081298828125,3566.2939453125L2439.13671875,3546.7939453125C2439.138427734375,3546.19580078125,2438.635986328125,3545.708984375,2438.014404296875,3545.70703125L2417.7646484375,3545.649658203125L2417.7646484375,3545.649658203125" fill-rule="evenodd" clip-rule="evenodd" style="fill: rgb(84, 21, 84); fill-opacity: 1;"/></g></g></svg>