<svg width="1448" height="1674" viewBox="0 0 1448 1674" fill="none" xmlns="http://www.w3.org/2000/svg">
<g clip-path="url(#clip0_4_19)">
<path d="M1242.04 484.945L1246.04 559.945M217.542 478.445L203.041 550.945M203.041 550.945L82.0414 557.445L126.541 451.445L203.041 550.945ZM203.041 550.945L350.542 617.945L501.041 478.445M501.041 478.445L951.041 474.445M501.041 478.445L571.041 878.945M951.041 474.445L1099.04 629.445L1246.04 559.945M951.041 474.445L879.541 876.945M1246.04 559.945L1328.04 448.445L1367.54 550.945L1246.04 559.945ZM571.041 878.945L490.041 1201.95L565.041 1531.95M571.041 878.945L879.541 876.945M874.042 1524.95L948.541 1207.95L879.541 876.945M874.042 1524.95L821.542 1608.45L986.542 1626.95L874.042 1524.95ZM565.041 1531.95L613.542 1611.45L451.042 1628.95L565.041 1531.95Z" stroke="#541554" stroke-width="8"/>
<path d="M725.042 35.9455C819.535 35.9455 897.042 124.058 897.042 233.946C897.042 343.833 819.535 431.946 725.042 431.946C630.548 431.946 553.042 343.833 553.042 233.946C553.042 124.058 630.548 35.9455 725.042 35.9455Z" stroke="#541554" stroke-width="8"/>
<path d="M682.542 317.947L769.953 317.947" stroke="#541554" stroke-width="8"/>
<path d="M565.042 213.446L647.041 173.946L727.541 252.946L806.041 176.946L895.041 216.446" stroke="#541554" stroke-width="8"/>
<circle cx="841.042" cy="175.946" r="14" fill="#FEC700" stroke="black" stroke-width="4"/>
<circle cx="892.042" cy="215.946" r="14" fill="#FEC700" stroke="black" stroke-width="4"/>
<circle cx="809.042" cy="175.946" r="14" fill="#FEC700" stroke="black" stroke-width="4"/>
<circle cx="775.042" cy="175.946" r="14" fill="#FEC700" stroke="black" stroke-width="4"/>
<circle cx="725.042" cy="252.946" r="14" fill="#FEC700" stroke="black" stroke-width="4"/>
<circle cx="680.042" cy="317.946" r="14" fill="#FEC700" stroke="black" stroke-width="4"/>
<circle cx="951.042" cy="474.946" r="14" fill="#FEC700" stroke="black" stroke-width="4"/>
<circle cx="877.042" cy="879.946" r="14" fill="#FEC700" stroke="black" stroke-width="4"/>
<circle cx="568.042" cy="878.946" r="14" fill="#FEC700" stroke="black" stroke-width="4"/>
<circle cx="951.042" cy="1203.95" r="14" fill="#FEC700" stroke="black" stroke-width="4"/>
<circle cx="489.042" cy="1203.95" r="14" fill="#FEC700" stroke="black" stroke-width="4"/>
<circle cx="870.042" cy="1525.95" r="14" fill="#FEC700" stroke="black" stroke-width="4"/>
<circle cx="822.042" cy="1608.95" r="14" fill="#FEC700" stroke="black" stroke-width="4"/>
<circle cx="988.042" cy="1627.95" r="14" fill="#FEC700" stroke="black" stroke-width="4"/>
<circle cx="565.042" cy="1528.95" r="14" fill="#FEC700" stroke="black" stroke-width="4"/>
<circle cx="613.042" cy="1612.95" r="14" fill="#FEC700" stroke="black" stroke-width="4"/>
<circle cx="447.042" cy="1629.95" r="14" fill="#FEC700" stroke="black" stroke-width="4"/>
<circle cx="500.042" cy="474.946" r="14" fill="#FEC700" stroke="black" stroke-width="4"/>
<circle cx="347.042" cy="616.946" r="14" fill="#FEC700" stroke="black" stroke-width="4"/>
<circle cx="12" cy="12" r="14" transform="matrix(-1 0 0 1 1111.04 612.946)" fill="#FEC700" stroke="black" stroke-width="4"/>
<circle cx="203.042" cy="548.946" r="14" fill="#FEC700" stroke="black" stroke-width="4"/>
<circle cx="12" cy="12" r="14" transform="matrix(-1 0 0 1 1258.04 546.946)" fill="#FEC700" stroke="black" stroke-width="4"/>
<circle cx="213.042" cy="482.946" r="14" fill="#FEC700" stroke="black" stroke-width="4"/>
<circle cx="12" cy="12" r="14" transform="matrix(-1 0 0 1 1255.04 473.946)" fill="#FEC700" stroke="black" stroke-width="4"/>
<circle cx="126.042" cy="450.946" r="14" fill="#FEC700" stroke="black" stroke-width="4"/>
<circle cx="12" cy="12" r="14" transform="matrix(-1 0 0 1 1337.04 437.946)" fill="#FEC700" stroke="black" stroke-width="4"/>
<circle cx="82.0415" cy="557.946" r="14" fill="#FEC700" stroke="black" stroke-width="4"/>
<circle cx="12" cy="12" r="14" transform="matrix(-1 0 0 1 1378.04 536.946)" fill="#FEC700" stroke="black" stroke-width="4"/>
<circle cx="775.042" cy="317.946" r="14" fill="#FEC700" stroke="black" stroke-width="4"/>
<circle cx="679.042" cy="173.946" r="14" fill="#FEC700" stroke="black" stroke-width="4"/>
<circle cx="646.042" cy="171.946" r="14" fill="#FEC700" stroke="black" stroke-width="4"/>
<circle cx="613.042" cy="172.946" r="14" fill="#FEC700" stroke="black" stroke-width="4"/>
<circle cx="572.042" cy="211.946" r="14" fill="#FEC700" stroke="black" stroke-width="4"/>
<path d="M205.489 843V733.909H215.45V834.051H267.438V843H205.489Z" fill="#541554"/>
<path d="M1175.49 843V733.909H1210.7C1218.44 733.909 1224.9 735.312 1230.09 738.117C1235.31 740.887 1239.23 744.74 1241.86 749.676C1244.52 754.577 1245.85 760.205 1245.85 766.562C1245.85 772.918 1244.52 778.529 1241.86 783.394C1239.23 788.259 1235.33 792.059 1230.14 794.793C1224.96 797.528 1218.53 798.895 1210.86 798.895H1180.87V789.786H1210.59C1216.27 789.786 1221 788.845 1224.76 786.963C1228.56 785.081 1231.38 782.4 1233.23 778.92C1235.11 775.44 1236.05 771.32 1236.05 766.562C1236.05 761.803 1235.11 757.648 1233.23 754.097C1231.35 750.511 1228.51 747.741 1224.71 745.788C1220.94 743.835 1216.18 742.858 1210.43 742.858H1185.45V843H1175.49ZM1223.59 793.781L1250.44 843H1238.93L1212.35 793.781H1223.59Z" fill="#541554"/>
</g>
<defs>
<clipPath id="clip0_4_19">
<rect width="1448" height="1674" fill="white"/>
</clipPath>
</defs>
</svg>
